<svg width="755" height="121" viewBox="0 0 755 121" fill="none" xmlns="http://www.w3.org/2000/svg">
<g filter="url(#filter0_n_247_340)">
<mask id="path-1-outside-1_247_340" maskUnits="userSpaceOnUse" x="3" y="22" width="747" height="77" fill="black">
<rect fill="white" x="3" y="22" width="747" height="77"/>
<path d="M72.5852 51.5455H52.5568C52.4148 49.8883 52.036 48.3849 51.4205 47.0355C50.8286 45.6861 50 44.526 48.9347 43.5554C47.893 42.5611 46.6264 41.8035 45.1349 41.2827C43.6435 40.7382 41.9508 40.4659 40.0568 40.4659C36.7424 40.4659 33.937 41.2708 31.6406 42.8807C29.3679 44.4905 27.6397 46.7988 26.456 49.8054C25.2959 52.812 24.7159 56.4223 24.7159 60.6364C24.7159 65.0871 25.3078 68.8158 26.4915 71.8224C27.6989 74.8054 29.4389 77.0545 31.7116 78.5696C33.9844 80.0611 36.7188 80.8068 39.9148 80.8068C41.7377 80.8068 43.3712 80.5819 44.8153 80.1321C46.2595 79.6586 47.5142 78.9839 48.5795 78.108C49.6449 77.232 50.509 76.1785 51.1719 74.9474C51.8584 73.6927 52.3201 72.2841 52.5568 70.7216L72.5852 70.8636C72.3485 73.9413 71.4844 77.0781 69.9929 80.2741C68.5014 83.4465 66.3826 86.3821 63.6364 89.081C60.9138 91.7562 57.5402 93.9105 53.5156 95.544C49.491 97.1776 44.8153 97.9943 39.4886 97.9943C32.8125 97.9943 26.8229 96.562 21.5199 93.6974C16.2405 90.8329 12.062 86.6188 8.98438 81.0554C5.9304 75.492 4.40341 68.6856 4.40341 60.6364C4.40341 52.5398 5.96591 45.7216 9.09091 40.1818C12.2159 34.6184 16.4299 30.4162 21.733 27.5753C27.036 24.7107 32.9545 23.2784 39.4886 23.2784C44.0814 23.2784 48.3073 23.9058 52.1662 25.1605C56.0251 26.4152 59.4105 28.25 62.3224 30.6648C65.2344 33.0559 67.5781 36.0033 69.3537 39.5071C71.1293 43.0109 72.2064 47.0237 72.5852 51.5455ZM107.189 97H85.8821L109.888 24.2727H136.876L160.882 97H139.575L123.666 44.3011H123.098L107.189 97ZM103.212 68.3068H143.268V83.0795H103.212V68.3068ZM165.718 40.1818V24.2727H228.929V40.1818H207.054V97H187.593V40.1818H165.718ZM245.359 97V24.2727H265.104V52.6818H291.24V24.2727H310.984V97H291.24V68.5909H265.104V97H245.359ZM348.251 97H326.945L350.95 24.2727H377.939L401.945 97H380.638L364.729 44.3011H364.161L348.251 97ZM344.274 68.3068H384.331V83.0795H344.274V68.3068ZM407.544 24.2727H429.561L443.766 53.8182H444.334L458.539 24.2727H480.556L453.851 74.1307V97H434.249V74.1307L407.544 24.2727ZM524.914 97V24.2727H544.658V81.0909H574.062V97H524.914ZM610.787 24.2727V97H591.043V24.2727H610.787ZM629.145 97V24.2727H680.281V40.1818H648.889V52.6818H677.156V68.5909H648.889V97H629.145ZM696.543 97V24.2727H748.958V40.1818H716.287V52.6818H746.259V68.5909H716.287V81.0909H748.816V97H696.543Z"/>
</mask>
<path d="M72.5852 51.5455V52.5455H73.6725L73.5817 51.462L72.5852 51.5455ZM52.5568 51.5455L51.5605 51.6309L51.6389 52.5455H52.5568V51.5455ZM51.4205 47.0355L50.5047 47.4372L50.5076 47.4439L50.5106 47.4505L51.4205 47.0355ZM48.9347 43.5554L48.2442 44.2788L48.2526 44.2868L48.2612 44.2946L48.9347 43.5554ZM45.1349 41.2827L44.792 42.2221L44.8053 42.2268L45.1349 41.2827ZM31.6406 42.8807L31.0666 42.0618L31.0626 42.0647L31.6406 42.8807ZM26.456 49.8054L25.5255 49.4391L25.523 49.4454L26.456 49.8054ZM26.4915 71.8224L25.561 72.1888L25.5645 72.1976L26.4915 71.8224ZM31.7117 78.5696L31.1569 79.4017L31.163 79.4056L31.7117 78.5696ZM44.8153 80.1321L45.1127 81.0869L45.1198 81.0846L45.1269 81.0823L44.8153 80.1321ZM48.5795 78.108L49.2147 78.8804L48.5795 78.108ZM51.1719 74.9474L50.2946 74.4674L50.2914 74.4733L51.1719 74.9474ZM52.5568 70.7216L52.5639 69.7216L51.6978 69.7155L51.5681 70.5718L52.5568 70.7216ZM72.5852 70.8636L73.5823 70.9403L73.6645 69.8713L72.5923 69.8637L72.5852 70.8636ZM69.9929 80.2741L70.8979 80.6996L70.8991 80.697L69.9929 80.2741ZM63.6364 89.081L64.3372 89.7943L64.3373 89.7942L63.6364 89.081ZM53.5156 95.544L53.1395 94.6174L53.5156 95.544ZM21.5199 93.6974L21.043 94.5764L21.0446 94.5773L21.5199 93.6974ZM8.98438 81.0554L8.10776 81.5366L8.10934 81.5395L8.98438 81.0554ZM9.09091 40.1818L9.96189 40.6731L9.96278 40.6716L9.09091 40.1818ZM21.733 27.5753L22.2052 28.4568L22.2082 28.4551L21.733 27.5753ZM52.1662 25.1605L52.4754 24.2095L52.1662 25.1605ZM62.3224 30.6648L61.6841 31.4345L61.6878 31.4376L62.3224 30.6648ZM69.3537 39.5071L68.4617 39.9591L69.3537 39.5071ZM72.5852 51.5455V50.5455H52.5568V51.5455V52.5455H72.5852V51.5455ZM52.5568 51.5455L53.5532 51.4601C53.4025 49.7026 52.9987 48.0859 52.3303 46.6205L51.4205 47.0355L50.5106 47.4505C51.0733 48.684 51.427 50.0739 51.5605 51.6309L52.5568 51.5455ZM51.4205 47.0355L52.3362 46.6339C51.6894 45.1591 50.7794 43.8833 49.6082 42.8162L48.9347 43.5554L48.2612 44.2946C49.2206 45.1688 49.9678 46.213 50.5047 47.4372L51.4205 47.0355ZM48.9347 43.5554L49.6251 42.832C48.4707 41.73 47.0775 40.9018 45.4646 40.3386L45.1349 41.2827L44.8053 42.2268C46.1753 42.7052 47.3153 43.3921 48.2442 44.2788L48.9347 43.5554ZM45.1349 41.2827L45.4779 40.3433C43.8576 39.7518 42.0458 39.4659 40.0568 39.4659V40.4659V41.4659C41.8558 41.4659 43.4293 41.7245 44.792 42.222L45.1349 41.2827ZM40.0568 40.4659V39.4659C36.5753 39.4659 33.56 40.3139 31.0666 42.0618L31.6406 42.8807L32.2147 43.6995C34.314 42.2278 36.9095 41.4659 40.0568 41.4659V40.4659ZM31.6406 42.8807L31.0626 42.0647C28.607 43.804 26.7688 46.2811 25.5255 49.4391L26.456 49.8054L27.3864 50.1717C28.5106 47.3164 30.1288 45.177 32.2186 43.6967L31.6406 42.8807ZM26.456 49.8054L25.523 49.4454C24.3073 52.5962 23.7159 56.3352 23.7159 60.6364H24.7159H25.7159C25.7159 56.5095 26.2845 53.0278 27.3889 50.1654L26.456 49.8054ZM24.7159 60.6364H23.7159C23.7159 65.1684 24.3176 69.0305 25.561 72.1888L26.4915 71.8224L27.422 71.4561C26.298 68.6012 25.7159 65.0058 25.7159 60.6364H24.7159ZM26.4915 71.8224L25.5645 72.1976C26.8336 75.3329 28.689 77.7563 31.1569 79.4016L31.7117 78.5696L32.2663 77.7375C30.1888 76.3525 28.5642 74.2779 27.4184 71.4473L26.4915 71.8224ZM31.7117 78.5696L31.163 79.4056C33.6256 81.0218 36.5587 81.8068 39.9148 81.8068V80.8068V79.8068C36.8788 79.8068 34.3431 79.1004 32.2603 77.7336L31.7117 78.5696ZM39.9148 80.8068V81.8068C41.8186 81.8068 43.5549 81.5721 45.1127 81.0869L44.8153 80.1321L44.518 79.1773C43.1875 79.5918 41.6568 79.8068 39.9148 79.8068V80.8068ZM44.8153 80.1321L45.1269 81.0823C46.677 80.5741 48.0441 79.8428 49.2147 78.8804L48.5795 78.108L47.9444 77.3355C46.9843 78.125 45.842 78.7431 44.5038 79.1819L44.8153 80.1321ZM48.5795 78.108L49.2147 78.8804C50.3818 77.9207 51.3287 76.7654 52.0523 75.4215L51.1719 74.9474L50.2914 74.4733C49.6893 75.5916 48.908 76.5433 47.9444 77.3355L48.5795 78.108ZM51.1719 74.9474L52.0491 75.4275C52.7975 74.0598 53.2931 72.5375 53.5455 70.8714L52.5568 70.7216L51.5681 70.5718C51.3471 72.0306 50.9194 73.3256 50.2946 74.4674L51.1719 74.9474ZM52.5568 70.7216L52.5497 71.7216L72.5781 71.8636L72.5852 70.8636L72.5923 69.8637L52.5639 69.7216L52.5568 70.7216ZM72.5852 70.8636L71.5882 70.7869C71.3619 73.7289 70.5345 76.7489 69.0867 79.8513L69.9929 80.2741L70.8991 80.697C72.4343 77.4074 73.3351 74.1537 73.5823 70.9403L72.5852 70.8636ZM69.9929 80.2741L69.0879 79.8487C67.6516 82.9037 65.6054 85.7438 62.9354 88.3677L63.6364 89.081L64.3373 89.7942C67.1597 87.0204 69.3512 83.9893 70.8979 80.6996L69.9929 80.2741ZM63.6364 89.081L62.9355 88.3677C60.3182 90.9394 57.0596 93.0264 53.1395 94.6174L53.5156 95.544L53.8917 96.4706C58.0209 94.7947 61.5094 92.5729 64.3372 89.7943L63.6364 89.081ZM53.5156 95.544L53.1395 94.6174C49.2581 96.1929 44.7147 96.9943 39.4886 96.9943V97.9943V98.9943C44.9159 98.9943 49.7239 98.1623 53.8917 96.4706L53.5156 95.544ZM39.4886 97.9943V96.9943C32.9602 96.9943 27.137 95.5951 21.9952 92.8176L21.5199 93.6974L21.0446 94.5773C26.5089 97.529 32.6648 98.9943 39.4886 98.9943V97.9943ZM21.5199 93.6974L21.9968 92.8185C16.8951 90.0503 12.8504 85.9781 9.85941 80.5713L8.98438 81.0554L8.10934 81.5395C11.2737 87.2596 15.586 91.6154 21.043 94.5764L21.5199 93.6974ZM8.98438 81.0554L9.86098 80.5742C6.90685 75.1926 5.40341 68.5616 5.40341 60.6364H4.40341H3.40341C3.40341 68.8096 4.95395 75.7913 8.10777 81.5366L8.98438 81.0554ZM4.40341 60.6364H5.40341C5.40341 52.6659 6.94154 46.0274 9.96189 40.6731L9.09091 40.1818L8.21993 39.6905C4.99028 45.4158 3.40341 52.4137 3.40341 60.6364H4.40341ZM9.09091 40.1818L9.96278 40.6716C13.0005 35.2635 17.0803 31.2022 22.2052 28.4568L21.733 27.5753L21.2607 26.6938C15.7796 29.6301 11.4313 33.9732 8.21904 39.6921L9.09091 40.1818ZM21.733 27.5753L22.2082 28.4551C27.3532 25.6759 33.1062 24.2784 39.4886 24.2784V23.2784V22.2784C32.8029 22.2784 26.7188 23.7455 21.2577 26.6954L21.733 27.5753ZM39.4886 23.2784V24.2784C43.9901 24.2784 48.1101 24.8932 51.857 26.1115L52.1662 25.1605L52.4754 24.2095C48.5045 22.9183 44.1728 22.2784 39.4886 22.2784V23.2784ZM52.1662 25.1605L51.857 26.1115C55.6045 27.33 58.8763 29.1061 61.6841 31.4345L62.3224 30.6648L62.9608 29.895C59.9447 27.3939 56.4457 25.5005 52.4754 24.2095L52.1662 25.1605ZM62.3224 30.6648L61.6878 31.4376C64.4881 33.737 66.746 36.5736 68.4617 39.9591L69.3537 39.5071L70.2457 39.0551C68.4102 35.433 65.9806 32.3747 62.9571 29.8919L62.3224 30.6648ZM69.3537 39.5071L68.4617 39.9591C70.1707 43.3315 71.219 47.2159 71.5887 51.6289L72.5852 51.5455L73.5817 51.462C73.1938 46.8315 72.0878 42.6902 70.2457 39.0551L69.3537 39.5071ZM107.189 97V98H107.932L108.146 97.289L107.189 97ZM85.8821 97L84.9325 96.6866L84.499 98H85.8821V97ZM109.888 24.2727V23.2727H109.165L108.938 23.9593L109.888 24.2727ZM136.876 24.2727L137.826 23.9593L137.599 23.2727H136.876V24.2727ZM160.882 97V98H162.265L161.832 96.6866L160.882 97ZM139.575 97L138.618 97.289L138.833 98H139.575V97ZM123.666 44.3011L124.624 44.0121L124.409 43.3011H123.666V44.3011ZM123.098 44.3011V43.3011H122.355L122.141 44.0121L123.098 44.3011ZM103.212 68.3068V67.3068H102.212V68.3068H103.212ZM143.268 68.3068H144.268V67.3068H143.268V68.3068ZM143.268 83.0795V84.0795H144.268V83.0795H143.268ZM103.212 83.0795H102.212V84.0795H103.212V83.0795ZM107.189 97V96H85.8821V97V98H107.189V97ZM85.8821 97L86.8317 97.3134L110.837 24.5862L109.888 24.2727L108.938 23.9593L84.9325 96.6866L85.8821 97ZM109.888 24.2727V25.2727H136.876V24.2727V23.2727H109.888V24.2727ZM136.876 24.2727L135.927 24.5862L159.932 97.3134L160.882 97L161.832 96.6866L137.826 23.9593L136.876 24.2727ZM160.882 97V96H139.575V97V98H160.882V97ZM139.575 97L140.533 96.711L124.624 44.0121L123.666 44.3011L122.709 44.5901L138.618 97.289L139.575 97ZM123.666 44.3011V43.3011H123.098V44.3011V45.3011H123.666V44.3011ZM123.098 44.3011L122.141 44.0121L106.232 96.711L107.189 97L108.146 97.289L124.055 44.5901L123.098 44.3011ZM103.212 68.3068V69.3068H143.268V68.3068V67.3068H103.212V68.3068ZM143.268 68.3068H142.268V83.0795H143.268H144.268V68.3068H143.268ZM143.268 83.0795V82.0795H103.212V83.0795V84.0795H143.268V83.0795ZM103.212 83.0795H104.212V68.3068H103.212H102.212V83.0795H103.212ZM165.718 40.1818H164.718V41.1818H165.718V40.1818ZM165.718 24.2727V23.2727H164.718V24.2727H165.718ZM228.929 24.2727H229.929V23.2727H228.929V24.2727ZM228.929 40.1818V41.1818H229.929V40.1818H228.929ZM207.054 40.1818V39.1818H206.054V40.1818H207.054ZM207.054 97V98H208.054V97H207.054ZM187.593 97H186.593V98H187.593V97ZM187.593 40.1818H188.593V39.1818H187.593V40.1818ZM165.718 40.1818H166.718V24.2727H165.718H164.718V40.1818H165.718ZM165.718 24.2727V25.2727H228.929V24.2727V23.2727H165.718V24.2727ZM228.929 24.2727H227.929V40.1818H228.929H229.929V24.2727H228.929ZM228.929 40.1818V39.1818H207.054V40.1818V41.1818H228.929V40.1818ZM207.054 40.1818H206.054V97H207.054H208.054V40.1818H207.054ZM207.054 97V96H187.593V97V98H207.054V97ZM187.593 97H188.593V40.1818H187.593H186.593V97H187.593ZM187.593 40.1818V39.1818H165.718V40.1818V41.1818H187.593V40.1818ZM245.359 97H244.359V98H245.359V97ZM245.359 24.2727V23.2727H244.359V24.2727H245.359ZM265.104 24.2727H266.104V23.2727H265.104V24.2727ZM265.104 52.6818H264.104V53.6818H265.104V52.6818ZM291.24 52.6818V53.6818H292.24V52.6818H291.24ZM291.24 24.2727V23.2727H290.24V24.2727H291.24ZM310.984 24.2727H311.984V23.2727H310.984V24.2727ZM310.984 97V98H311.984V97H310.984ZM291.24 97H290.24V98H291.24V97ZM291.24 68.5909H292.24V67.5909H291.24V68.5909ZM265.104 68.5909V67.5909H264.104V68.5909H265.104ZM265.104 97V98H266.104V97H265.104ZM245.359 97H246.359V24.2727H245.359H244.359V97H245.359ZM245.359 24.2727V25.2727H265.104V24.2727V23.2727H245.359V24.2727ZM265.104 24.2727H264.104V52.6818H265.104H266.104V24.2727H265.104ZM265.104 52.6818V53.6818H291.24V52.6818V51.6818H265.104V52.6818ZM291.24 52.6818H292.24V24.2727H291.24H290.24V52.6818H291.24ZM291.24 24.2727V25.2727H310.984V24.2727V23.2727H291.24V24.2727ZM310.984 24.2727H309.984V97H310.984H311.984V24.2727H310.984ZM310.984 97V96H291.24V97V98H310.984V97ZM291.24 97H292.24V68.5909H291.24H290.24V97H291.24ZM291.24 68.5909V67.5909H265.104V68.5909V69.5909H291.24V68.5909ZM265.104 68.5909H264.104V97H265.104H266.104V68.5909H265.104ZM265.104 97V96H245.359V97V98H265.104V97ZM348.251 97V98H348.994L349.209 97.289L348.251 97ZM326.945 97L325.995 96.6866L325.561 98H326.945V97ZM350.95 24.2727V23.2727H350.227L350.001 23.9593L350.95 24.2727ZM377.939 24.2727L378.889 23.9593L378.662 23.2727H377.939V24.2727ZM401.945 97V98H403.328L402.894 96.6866L401.945 97ZM380.638 97L379.68 97.289L379.895 98H380.638V97ZM364.729 44.3011L365.686 44.0121L365.471 43.3011H364.729V44.3011ZM364.161 44.3011V43.3011H363.418L363.203 44.0121L364.161 44.3011ZM344.274 68.3068V67.3068H343.274V68.3068H344.274ZM384.331 68.3068H385.331V67.3068H384.331V68.3068ZM384.331 83.0795V84.0795H385.331V83.0795H384.331ZM344.274 83.0795H343.274V84.0795H344.274V83.0795ZM348.251 97V96H326.945V97V98H348.251V97ZM326.945 97L327.894 97.3134L351.9 24.5862L350.95 24.2727L350.001 23.9593L325.995 96.6866L326.945 97ZM350.95 24.2727V25.2727H377.939V24.2727V23.2727H350.95V24.2727ZM377.939 24.2727L376.989 24.5862L400.995 97.3134L401.945 97L402.894 96.6866L378.889 23.9593L377.939 24.2727ZM401.945 97V96H380.638V97V98H401.945V97ZM380.638 97L381.595 96.711L365.686 44.0121L364.729 44.3011L363.771 44.5901L379.68 97.289L380.638 97ZM364.729 44.3011V43.3011H364.161V44.3011V45.3011H364.729V44.3011ZM364.161 44.3011L363.203 44.0121L347.294 96.711L348.251 97L349.209 97.289L365.118 44.5901L364.161 44.3011ZM344.274 68.3068V69.3068H384.331V68.3068V67.3068H344.274V68.3068ZM384.331 68.3068H383.331V83.0795H384.331H385.331V68.3068H384.331ZM384.331 83.0795V82.0795H344.274V83.0795V84.0795H384.331V83.0795ZM344.274 83.0795H345.274V68.3068H344.274H343.274V83.0795H344.274ZM407.544 24.2727V23.2727H405.874L406.663 24.7449L407.544 24.2727ZM429.561 24.2727L430.463 23.8394L430.19 23.2727H429.561V24.2727ZM443.766 53.8182L442.865 54.2515L443.137 54.8182H443.766V53.8182ZM444.334 53.8182V54.8182H444.963L445.235 54.2515L444.334 53.8182ZM458.539 24.2727V23.2727H457.91L457.637 23.8394L458.539 24.2727ZM480.556 24.2727L481.437 24.7449L482.226 23.2727H480.556V24.2727ZM453.851 74.1307L452.97 73.6585L452.851 73.8797V74.1307H453.851ZM453.851 97V98H454.851V97H453.851ZM434.249 97H433.249V98H434.249V97ZM434.249 74.1307H435.249V73.8797L435.13 73.6585L434.249 74.1307ZM407.544 24.2727V25.2727H429.561V24.2727V23.2727H407.544V24.2727ZM429.561 24.2727L428.66 24.706L442.865 54.2515L443.766 53.8182L444.667 53.3849L430.463 23.8394L429.561 24.2727ZM443.766 53.8182V54.8182H444.334V53.8182V52.8182H443.766V53.8182ZM444.334 53.8182L445.235 54.2515L459.44 24.706L458.539 24.2727L457.637 23.8394L443.433 53.3849L444.334 53.8182ZM458.539 24.2727V25.2727H480.556V24.2727V23.2727H458.539V24.2727ZM480.556 24.2727L479.674 23.8006L452.97 73.6585L453.851 74.1307L454.733 74.6028L481.437 24.7449L480.556 24.2727ZM453.851 74.1307H452.851V97H453.851H454.851V74.1307H453.851ZM453.851 97V96H434.249V97V98H453.851V97ZM434.249 97H435.249V74.1307H434.249H433.249V97H434.249ZM434.249 74.1307L435.13 73.6585L408.426 23.8006L407.544 24.2727L406.663 24.7449L433.367 74.6028L434.249 74.1307ZM524.914 97H523.914V98H524.914V97ZM524.914 24.2727V23.2727H523.914V24.2727H524.914ZM544.658 24.2727H545.658V23.2727H544.658V24.2727ZM544.658 81.0909H543.658V82.0909H544.658V81.0909ZM574.062 81.0909H575.062V80.0909H574.062V81.0909ZM574.062 97V98H575.062V97H574.062ZM524.914 97H525.914V24.2727H524.914H523.914V97H524.914ZM524.914 24.2727V25.2727H544.658V24.2727V23.2727H524.914V24.2727ZM544.658 24.2727H543.658V81.0909H544.658H545.658V24.2727H544.658ZM544.658 81.0909V82.0909H574.062V81.0909V80.0909H544.658V81.0909ZM574.062 81.0909H573.062V97H574.062H575.062V81.0909H574.062ZM574.062 97V96H524.914V97V98H574.062V97ZM610.787 24.2727H611.787V23.2727H610.787V24.2727ZM610.787 97V98H611.787V97H610.787ZM591.043 97H590.043V98H591.043V97ZM591.043 24.2727V23.2727H590.043V24.2727H591.043ZM610.787 24.2727H609.787V97H610.787H611.787V24.2727H610.787ZM610.787 97V96H591.043V97V98H610.787V97ZM591.043 97H592.043V24.2727H591.043H590.043V97H591.043ZM591.043 24.2727V25.2727H610.787V24.2727V23.2727H591.043V24.2727ZM629.145 97H628.145V98H629.145V97ZM629.145 24.2727V23.2727H628.145V24.2727H629.145ZM680.281 24.2727H681.281V23.2727H680.281V24.2727ZM680.281 40.1818V41.1818H681.281V40.1818H680.281ZM648.889 40.1818V39.1818H647.889V40.1818H648.889ZM648.889 52.6818H647.889V53.6818H648.889V52.6818ZM677.156 52.6818H678.156V51.6818H677.156V52.6818ZM677.156 68.5909V69.5909H678.156V68.5909H677.156ZM648.889 68.5909V67.5909H647.889V68.5909H648.889ZM648.889 97V98H649.889V97H648.889ZM629.145 97H630.145V24.2727H629.145H628.145V97H629.145ZM629.145 24.2727V25.2727H680.281V24.2727V23.2727H629.145V24.2727ZM680.281 24.2727H679.281V40.1818H680.281H681.281V24.2727H680.281ZM680.281 40.1818V39.1818H648.889V40.1818V41.1818H680.281V40.1818ZM648.889 40.1818H647.889V52.6818H648.889H649.889V40.1818H648.889ZM648.889 52.6818V53.6818H677.156V52.6818V51.6818H648.889V52.6818ZM677.156 52.6818H676.156V68.5909H677.156H678.156V52.6818H677.156ZM677.156 68.5909V67.5909H648.889V68.5909V69.5909H677.156V68.5909ZM648.889 68.5909H647.889V97H648.889H649.889V68.5909H648.889ZM648.889 97V96H629.145V97V98H648.889V97ZM696.543 97H695.543V98H696.543V97ZM696.543 24.2727V23.2727H695.543V24.2727H696.543ZM748.958 24.2727H749.958V23.2727H748.958V24.2727ZM748.958 40.1818V41.1818H749.958V40.1818H748.958ZM716.287 40.1818V39.1818H715.287V40.1818H716.287ZM716.287 52.6818H715.287V53.6818H716.287V52.6818ZM746.259 52.6818H747.259V51.6818H746.259V52.6818ZM746.259 68.5909V69.5909H747.259V68.5909H746.259ZM716.287 68.5909V67.5909H715.287V68.5909H716.287ZM716.287 81.0909H715.287V82.0909H716.287V81.0909ZM748.816 81.0909H749.816V80.0909H748.816V81.0909ZM748.816 97V98H749.816V97H748.816ZM696.543 97H697.543V24.2727H696.543H695.543V97H696.543ZM696.543 24.2727V25.2727H748.958V24.2727V23.2727H696.543V24.2727ZM748.958 24.2727H747.958V40.1818H748.958H749.958V24.2727H748.958ZM748.958 40.1818V39.1818H716.287V40.1818V41.1818H748.958V40.1818ZM716.287 40.1818H715.287V52.6818H716.287H717.287V40.1818H716.287ZM716.287 52.6818V53.6818H746.259V52.6818V51.6818H716.287V52.6818ZM746.259 52.6818H745.259V68.5909H746.259H747.259V52.6818H746.259ZM746.259 68.5909V67.5909H716.287V68.5909V69.5909H746.259V68.5909ZM716.287 68.5909H715.287V81.0909H716.287H717.287V68.5909H716.287ZM716.287 81.0909V82.0909H748.816V81.0909V80.0909H716.287V81.0909ZM748.816 81.0909H747.816V97H748.816H749.816V81.0909H748.816ZM748.816 97V96H696.543V97V98H748.816V97Z" fill="white" mask="url(#path-1-outside-1_247_340)"/>
</g>
<defs>
<filter id="filter0_n_247_340" x="3.40332" y="22.2784" width="746.554" height="76.7159" filterUnits="userSpaceOnUse" color-interpolation-filters="sRGB">
<feFlood flood-opacity="0" result="BackgroundImageFix"/>
<feBlend mode="normal" in="SourceGraphic" in2="BackgroundImageFix" result="shape"/>
<feTurbulence type="fractalNoise" baseFrequency="2 2" stitchTiles="stitch" numOctaves="3" result="noise" seed="2339" />
<feColorMatrix in="noise" type="luminanceToAlpha" result="alphaNoise" />
<feComponentTransfer in="alphaNoise" result="coloredNoise1">
<feFuncA type="discrete" tableValues="1 1 1 1 1 1 1 1 1 1 1 1 1 1 1 1 1 1 1 1 1 1 1 1 1 1 1 1 1 1 1 1 1 1 1 1 1 1 1 1 1 1 1 1 1 1 1 1 1 1 1 0 0 0 0 0 0 0 0 0 0 0 0 0 0 0 0 0 0 0 0 0 0 0 0 0 0 0 0 0 0 0 0 0 0 0 0 0 0 0 0 0 0 0 0 0 0 0 0 0 "/>
</feComponentTransfer>
<feComposite operator="in" in2="shape" in="coloredNoise1" result="noise1Clipped" />
<feFlood flood-color="#FFFFFF" result="color1Flood" />
<feComposite operator="in" in2="noise1Clipped" in="color1Flood" result="color1" />
<feMerge result="effect1_noise_247_340">
<feMergeNode in="shape" />
<feMergeNode in="color1" />
</feMerge>
</filter>
</defs>
</svg>
