<svg width="100" height="100" viewBox="0 0 100 100" fill="none" xmlns="http://www.w3.org/2000/svg">
<path d="M38.6115 4.47403L38.0721 1.69532C38.139 1.53809 38.2582 1.3527 38.4297 1.13915C38.6018 0.929068 38.8563 0.724674 39.1931 0.525965C39.527 0.331406 39.9775 0.179182 40.5445 0.0692933C41.0071 -0.0203704 41.4487 -0.0230173 41.8693 0.0613527C42.287 0.149872 42.6686 0.321155 43.0138 0.575199C43.3563 0.833393 43.649 1.16976 43.8918 1.58429C44.1319 2.00298 44.3069 2.49558 44.4169 3.0621L44.5313 3.65121C44.6412 4.21773 44.6733 4.73623 44.6275 5.20672C44.5782 5.67789 44.4532 6.09341 44.2523 6.4533C44.0522 6.81667 43.7781 7.11503 43.43 7.34839C43.0826 7.58522 42.6636 7.75117 42.1732 7.84623C41.5924 7.95881 41.0876 7.95207 40.6589 7.82599C40.2274 7.70406 39.868 7.48882 39.5807 7.18026C39.29 6.87237 39.0698 6.50032 38.9201 6.06411L39.9271 5.86894C40.0256 6.13474 40.1646 6.36746 40.3441 6.56708C40.5201 6.76737 40.7448 6.91136 41.0181 6.99904C41.292 7.0902 41.6238 7.09802 42.0133 7.02252C42.3646 6.95443 42.6565 6.83114 42.8889 6.65265C43.1213 6.47417 43.2977 6.24884 43.4181 5.97667C43.5386 5.70449 43.6074 5.39001 43.6248 5.03323C43.6387 4.67711 43.6041 4.28531 43.5211 3.85782L43.4048 3.25828C43.3197 2.82036 43.1934 2.43913 43.0257 2.1146C42.8546 1.79074 42.6498 1.52571 42.4112 1.3195C42.1734 1.11676 41.9101 0.978455 41.6215 0.904571C41.3294 0.831361 41.0216 0.826104 40.6981 0.888801C40.3399 0.95824 40.0552 1.04408 39.844 1.14631C39.6336 1.25201 39.4738 1.35871 39.3648 1.46639C39.2565 1.57755 39.1767 1.67777 39.1254 1.76704L39.4553 3.46659L41.2136 3.1258L41.3715 3.93909L38.6115 4.47403Z" fill="#177338"/>
<path d="M26.5623 9.62662L26.3423 9.19028C26.0809 8.67172 25.9115 8.17428 25.834 7.69793C25.7566 7.22158 25.7672 6.77823 25.8658 6.36786C25.9644 5.9575 26.1463 5.59043 26.4116 5.26666C26.6736 4.94448 27.0151 4.67748 27.436 4.46566C27.8442 4.26021 28.2574 4.14737 28.6756 4.12714C29.0907 4.1085 29.4958 4.18014 29.8908 4.34206C30.2826 4.50557 30.6502 4.75861 30.9935 5.10118C31.3367 5.44374 31.6391 5.8743 31.9004 6.39285L32.1204 6.8292C32.3818 7.34775 32.5488 7.84442 32.6215 8.31919C32.6927 8.79872 32.6773 9.24447 32.5756 9.65642C32.4754 10.0715 32.2942 10.4402 32.0322 10.7624C31.7669 11.0861 31.4302 11.3508 31.022 11.5562C30.6011 11.768 30.1832 11.8833 29.7681 11.9019C29.3498 11.9221 28.9456 11.8481 28.5553 11.6798C28.1634 11.5163 27.799 11.2617 27.4621 10.9159C27.1236 10.575 26.8236 10.1452 26.5623 9.62662ZM27.2489 8.73399L27.4736 9.17982C27.6808 9.59087 27.9068 9.93299 28.1516 10.2062C28.3933 10.481 28.649 10.6853 28.9188 10.819C29.1885 10.9528 29.4684 11.0161 29.7583 11.0089C30.0451 11.0033 30.3356 10.9265 30.6299 10.7784C30.9147 10.635 31.1447 10.4499 31.3199 10.223C31.492 9.99765 31.6061 9.73607 31.6622 9.43824C31.7152 9.14201 31.7063 8.8135 31.6356 8.45272C31.5648 8.09193 31.4258 7.70602 31.2186 7.29497L30.9939 6.84914C30.7851 6.43493 30.5559 6.09044 30.3063 5.81568C30.0583 5.54409 29.7971 5.34061 29.5226 5.20525C29.2465 5.07465 28.9666 5.01135 28.683 5.01535C28.3962 5.02095 28.1104 5.09541 27.8256 5.23875C27.5282 5.38845 27.2919 5.57677 27.1167 5.8037C26.9414 6.03062 26.8289 6.29141 26.7791 6.58605C26.7277 6.88544 26.7405 7.21394 26.8176 7.57154C26.8963 7.9323 27.0401 8.31978 27.2489 8.73399Z" fill="#177338"/>
<path d="M17.4911 21.8737L11.6568 16.7944L12.3201 16.0337L18.1544 21.1129L17.4911 21.8737ZM15.8572 23.7476L15.2241 23.1964L19.1517 18.6919L19.7848 19.2431L15.8572 23.7476Z" fill="#177338"/>
<path d="M6.8745 32.0638L6.43513 31.8495C5.91298 31.5947 5.47683 31.3012 5.12666 30.9688C4.7765 30.6364 4.5164 30.2771 4.34637 29.8908C4.17634 29.5045 4.09886 29.1022 4.11392 28.6841C4.12743 28.2691 4.23756 27.8501 4.4443 27.4269C4.64484 27.0165 4.90546 26.6768 5.22617 26.4078C5.54532 26.1419 5.91117 25.954 6.3237 25.844C6.73468 25.7372 7.18054 25.7164 7.66129 25.7815C8.14203 25.8467 8.64347 26.0066 9.16562 26.2614L9.60499 26.4757C10.1271 26.7305 10.5609 27.0248 10.9063 27.3588C11.2534 27.6976 11.5112 28.0617 11.6796 28.4512C11.8513 28.8422 11.9304 29.2452 11.9169 29.6602C11.9018 30.0784 11.794 30.4926 11.5935 30.903C11.3867 31.3262 11.1238 31.6706 10.8046 31.9365C10.4839 32.2055 10.1173 32.3911 9.70465 32.4931C9.29366 32.5999 8.84936 32.6176 8.37173 32.5461C7.89572 32.4793 7.39665 32.3186 6.8745 32.0638ZM6.8805 30.938L7.32942 31.157C7.74331 31.359 8.13044 31.4946 8.4908 31.5641C8.8496 31.6367 9.17689 31.6447 9.47267 31.5881C9.76845 31.5314 10.0296 31.4126 10.256 31.2315C10.4809 31.0537 10.6657 30.8168 10.8103 30.5209C10.9502 30.2346 11.0211 29.9481 11.0232 29.6615C11.0237 29.3781 10.9561 29.1008 10.8204 28.8298C10.6832 28.5619 10.4772 28.3058 10.2023 28.0614C9.92745 27.8169 9.58307 27.5938 9.16917 27.3918L8.72025 27.1728C8.30317 26.9693 7.91208 26.8337 7.54699 26.7659C7.18508 26.6996 6.85387 26.6956 6.55335 26.7539C6.25446 26.8169 5.99334 26.9357 5.76998 27.1104C5.54507 27.2883 5.36266 27.5204 5.22275 27.8067C5.07663 28.1058 5.00254 28.3986 5.0005 28.6852C4.99845 28.9718 5.06682 29.2475 5.20559 29.5122C5.346 29.7816 5.55518 30.0353 5.83315 30.2734C6.1143 30.513 6.46341 30.7345 6.8805 30.938Z" fill="#177338"/>
<path d="M3.13125 41.0668L3.52515 39.0389L4.34425 39.1977L3.95035 41.2257C3.87407 41.6184 3.87491 41.9486 3.95287 42.2161C4.03083 42.4837 4.1703 42.6947 4.3713 42.8491C4.57163 43.0069 4.8144 43.1135 5.0996 43.1688C5.36047 43.2194 5.61681 43.2096 5.86865 43.1395C6.11981 43.0728 6.33858 42.9313 6.52496 42.715C6.71482 42.4993 6.84789 42.1952 6.92417 41.8024L7.2725 40.0091L0.500542 38.6957L0.695974 37.6896L8.29226 39.1628L7.74849 41.9623C7.63711 42.5358 7.44381 43.0014 7.1686 43.3591C6.89338 43.7169 6.56022 43.9642 6.1691 44.1011C5.78145 44.2387 5.36329 44.264 4.91461 44.177C4.42767 44.0826 4.03194 43.8994 3.72743 43.6276C3.42292 43.3558 3.21872 43.0042 3.11481 42.5729C3.01438 42.1423 3.01986 41.6403 3.13125 41.0668Z" fill="#177338"/>
<path d="M4.4885 61.6476L1.70995 62.1983C1.55233 62.1321 1.3663 62.0138 1.15186 61.8433C0.940901 61.6722 0.735283 61.4188 0.535008 61.0831C0.338898 60.7502 0.184665 60.3007 0.0723106 59.7347C-0.0193655 59.2728 -0.0238707 58.8315 0.058795 58.4109C0.145625 57.9931 0.315433 57.6111 0.568218 57.2651C0.825168 56.9218 1.16056 56.6279 1.57438 56.3835C1.99238 56.1418 2.48461 55.9649 3.0511 55.8526L3.64017 55.7359C4.20666 55.6236 4.72542 55.5894 5.19646 55.6332C5.66819 55.6804 6.08455 55.8036 6.44556 56.0028C6.81004 56.2013 7.10977 56.4739 7.34477 56.8208C7.58325 57.1669 7.75108 57.5848 7.84827 58.0745C7.96338 58.6544 7.95876 59.1588 7.83439 59.5877C7.71418 60.0194 7.50028 60.3794 7.1927 60.6677C6.8858 60.9596 6.5144 61.1812 6.07848 61.3325L5.87893 60.3272C6.14452 60.2276 6.37683 60.0877 6.57585 59.9075C6.77555 59.7308 6.9187 59.5057 7.0053 59.2323C7.09538 58.9582 7.10181 58.6266 7.02461 58.2377C6.95499 57.887 6.83039 57.5958 6.65079 57.3643C6.47119 57.1329 6.24495 56.9575 5.97207 56.8384C5.69918 56.7192 5.38417 56.6517 5.02705 56.6358C4.67061 56.6235 4.27865 56.6596 3.85118 56.7444L3.25168 56.8632C2.81379 56.95 2.4328 57.0778 2.10873 57.2467C1.78535 57.4191 1.52098 57.6249 1.31561 57.8641C1.11373 58.1026 0.976418 58.3662 0.903691 58.6549C0.831654 58.9471 0.827688 59.2547 0.891792 59.5777C0.962789 59.9354 1.04989 60.2195 1.15308 60.43C1.25975 60.6399 1.3672 60.799 1.47542 60.9075C1.58712 61.0153 1.68775 61.0946 1.7773 61.1455L3.47675 60.8087L3.12832 59.0532L3.94155 58.892L4.4885 61.6476Z" fill="#177338"/>
<path d="M9.69564 73.6659L9.25989 73.8875C8.74204 74.1509 8.24493 74.3222 7.76855 74.4016C7.29217 74.481 6.84843 74.4723 6.43735 74.3755C6.02626 74.2787 5.65814 74.0985 5.33301 73.8348C5.00948 73.5743 4.74085 73.2342 4.5271 72.8145C4.31978 72.4075 4.20512 71.9951 4.18312 71.5773C4.16272 71.1626 4.23271 70.7575 4.39309 70.3621C4.55508 69.9699 4.80676 69.6015 5.14814 69.2571C5.48953 68.9127 5.91914 68.6088 6.43699 68.3454L6.87274 68.1238C7.39058 67.8604 7.88692 67.6914 8.36175 67.6168C8.84134 67.5437 9.28749 67.5571 9.70018 67.6571C10.116 67.7555 10.4857 67.9349 10.8093 68.1954C11.1344 68.4591 11.4006 68.7944 11.6079 69.2015C11.8217 69.6211 11.9388 70.0383 11.9591 70.453C11.9812 70.8708 11.9088 71.2751 11.742 71.6658C11.58 72.058 11.3267 72.4232 10.9822 72.7613C10.6423 73.101 10.2135 73.4025 9.69564 73.6659ZM8.79945 72.9835L9.24467 72.7571C9.65516 72.5483 9.99658 72.3211 10.269 72.0753C10.5429 71.8327 10.7463 71.5763 10.879 71.3062C11.0118 71.0361 11.074 70.7562 11.0656 70.4665C11.0588 70.1799 10.9806 69.8899 10.8312 69.5965C10.6865 69.3125 10.5003 69.0835 10.2724 68.9094C10.0462 68.7384 9.78396 68.6255 9.48567 68.5706C9.189 68.5189 8.86028 68.5292 8.49952 68.6014C8.13876 68.6737 7.75313 68.8142 7.34265 69.0229L6.89743 69.2494C6.48378 69.4597 6.14 69.6902 5.86608 69.9407C5.59532 70.1897 5.39279 70.4516 5.25848 70.7264C5.12894 71.0029 5.06677 71.2828 5.07197 71.5662C5.07877 71.8527 5.15449 72.1379 5.29913 72.4219C5.4502 72.7185 5.63966 72.9538 5.86749 73.128C6.09533 73.3021 6.35678 73.4134 6.65185 73.462C6.95169 73.5121 7.28038 73.4979 7.63793 73.4193C7.99863 73.3392 8.3858 73.1939 8.79945 72.9835Z" fill="#177338"/>
<path d="M21.9901 82.6786L16.9315 88.5297L16.1674 87.8701L21.226 82.0189L21.9901 82.6786ZM23.8722 84.3033L23.3233 84.9382L18.7989 81.0326L19.3478 80.3977L23.8722 84.3033Z" fill="#177338"/>
<path d="M32.2326 93.2441L32.0199 93.684C31.7672 94.2069 31.4752 94.6439 31.1441 94.9952C30.8129 95.3465 30.4544 95.6079 30.0685 95.7794C29.6826 95.9509 29.2804 96.0301 28.8619 96.0168C28.4465 96.005 28.0267 95.8967 27.6024 95.6919C27.1908 95.4933 26.8497 95.2343 26.5792 94.9149C26.3118 94.5972 26.1222 94.2324 26.0104 93.8206C25.9018 93.4104 25.8791 92.965 25.9422 92.4843C26.0054 92.0037 26.1633 91.502 26.4161 90.9791L26.6287 90.5392C26.8815 90.0164 27.1742 89.5817 27.507 89.2352C27.8446 88.8869 28.2079 88.6279 28.597 88.4579C28.9876 88.2847 29.3906 88.204 29.8059 88.2157C30.2244 88.229 30.6395 88.335 31.051 88.5337C31.4754 88.7385 31.8212 88.9998 32.0886 89.3176C32.3592 89.6369 32.5464 90.0025 32.6503 90.4143C32.7589 90.8246 32.7784 91.2684 32.7089 91.746C32.6441 92.2219 32.4853 92.7213 32.2326 93.2441ZM31.1059 93.2429L31.3232 92.7934C31.5235 92.3789 31.6577 91.9915 31.7256 91.6312C31.7968 91.2723 31.8034 90.9453 31.7455 90.65C31.6876 90.3546 31.5676 90.0942 31.3854 89.8687C31.2065 89.6447 30.9686 89.4611 30.6719 89.3179C30.3848 89.1793 30.0978 89.1096 29.811 89.1087C29.5273 89.1094 29.2502 89.1781 28.9795 89.3148C28.712 89.4531 28.4565 89.66 28.2131 89.9357C27.9696 90.2114 27.7477 90.5564 27.5474 90.9708L27.3301 91.4203C27.1282 91.838 26.9941 92.2293 26.9278 92.5944C26.863 92.9563 26.8604 93.2873 26.92 93.5873C26.9842 93.8857 27.1043 94.1461 27.28 94.3686C27.459 94.5926 27.692 94.7739 27.9792 94.9125C28.2791 95.0572 28.5724 95.13 28.8593 95.1309C29.1461 95.1317 29.4217 95.0622 29.686 94.9225C29.955 94.781 30.2081 94.5709 30.4451 94.2922C30.6837 94.0102 30.904 93.6605 31.1059 93.2429Z" fill="#177338"/>
<path d="M41.2581 96.9466L39.227 96.5616L39.3825 95.7424L41.4136 96.1275C41.807 96.2021 42.1374 96.1998 42.4048 96.1208C42.6723 96.0418 42.8828 95.9015 43.0365 95.7C43.1936 95.4992 43.2993 95.2562 43.3534 94.971C43.4029 94.7101 43.3921 94.454 43.3208 94.2026C43.253 93.9519 43.1105 93.7339 42.8932 93.5486C42.6766 93.3598 42.3717 93.2281 41.9783 93.1535L40.1821 92.813L38.8963 99.5853L37.8885 99.3942L39.3309 91.7976L42.1348 92.3292C42.7092 92.4381 43.176 92.6293 43.5351 92.9028C43.8943 93.1763 44.1433 93.5081 44.2819 93.8984C44.4213 94.2851 44.4483 94.7029 44.3631 95.1516C44.2707 95.6385 44.0891 96.0347 43.8183 96.3401C43.5475 96.6456 43.1966 96.8511 42.7654 96.9567C42.3349 97.0589 41.8325 97.0555 41.2581 96.9466Z" fill="#177338"/>
<path d="M61.8487 95.5039L62.4115 98.278C62.3459 98.4358 62.2283 98.6222 62.0586 98.8372C61.8882 99.0487 61.6355 99.2552 61.3004 99.4567C60.9681 99.6541 60.5189 99.8101 59.9529 99.9247C59.491 100.018 59.0495 100.025 58.6282 99.9438C58.2097 99.8588 57.8267 99.6907 57.4793 99.4396C57.1347 99.1843 56.8392 98.8504 56.5929 98.4379C56.3493 98.0212 56.1701 97.5301 56.0554 96.9646L55.9361 96.3764C55.8213 95.8109 55.7849 95.2926 55.8267 94.8218C55.8721 94.3502 55.9936 93.9337 56.1914 93.5721C56.3885 93.2071 56.6601 92.9064 57.0062 92.6701C57.3516 92.4304 57.7691 92.2609 58.2587 92.1618C58.8386 92.0443 59.3435 92.0468 59.7732 92.1693C60.2057 92.2876 60.5669 92.4998 60.8567 92.8059C61.1501 93.1114 61.3734 93.4815 61.5267 93.9165L60.5214 94.1201C60.4207 93.8551 60.2797 93.6236 60.0985 93.4255C59.9208 93.2267 59.695 93.0846 59.421 92.9992C59.1463 92.9104 58.8145 92.9053 58.4256 92.9841C58.0749 93.0551 57.784 93.1809 57.5531 93.3613C57.3222 93.5417 57.1477 93.7685 57.0296 94.0417C56.9115 94.3149 56.8452 94.6299 56.8309 94.9868C56.82 95.3431 56.8579 95.7346 56.9444 96.1613L57.0659 96.7599C57.1545 97.1971 57.2841 97.5772 57.4545 97.9003C57.6283 98.2227 57.8354 98.486 58.0756 98.6902C58.3152 98.891 58.5796 99.0271 58.8688 99.0985C59.1616 99.1693 59.4694 99.172 59.7923 99.1065C60.15 99.0341 60.434 98.9459 60.6442 98.8419C60.8538 98.7344 61.0126 98.6264 61.1207 98.5178C61.2281 98.4057 61.3071 98.3048 61.3576 98.2151L61.0134 96.5184L59.2581 96.8739L59.0934 96.062L61.8487 95.5039Z" fill="#177338"/>
<path d="M73.8542 90.2503L74.0778 90.6848C74.3435 91.2011 74.5171 91.6971 74.5986 92.1728C74.6801 92.6485 74.6732 93.0919 74.5781 93.5031C74.4829 93.9142 74.3041 94.2828 74.0415 94.6088C73.7822 94.9332 73.443 95.2031 73.0239 95.4184C72.6175 95.6273 72.2052 95.7436 71.7871 95.7673C71.3722 95.7894 70.9666 95.7212 70.5702 95.5626C70.177 95.4024 69.8073 95.1525 69.4612 94.8128C69.1151 94.4731 68.8091 94.0451 68.5434 93.5288L68.3198 93.0943C68.054 92.578 67.8828 92.0827 67.8061 91.6086C67.7309 91.1297 67.7425 90.6838 67.8408 90.271C67.9375 89.855 68.1155 89.4849 68.3749 89.1605C68.6374 88.8345 68.9719 88.5671 69.3783 88.3582C69.7974 88.1429 70.2144 88.0241 70.6293 88.002C71.0474 87.9783 71.4523 88.0489 71.8439 88.2139C72.2372 88.3741 72.6037 88.6256 72.9435 88.9686C73.2849 89.3067 73.5884 89.7339 73.8542 90.2503ZM73.1751 91.1486L72.9466 90.7047C72.736 90.2954 72.5071 89.9552 72.26 89.6841C72.016 89.4113 71.7586 89.2092 71.4877 89.0777C71.2168 88.9462 70.9365 88.8852 70.6466 88.8949C70.3599 88.9029 70.07 88.9822 69.777 89.1327C69.4934 89.2785 69.265 89.4655 69.0917 89.6939C68.9215 89.9207 68.8096 90.1832 68.756 90.4815C68.7054 90.7782 68.7171 91.1066 68.7909 91.4668C68.8647 91.8269 69.007 92.2117 69.2176 92.621L69.4461 93.0649C69.6584 93.4773 69.8904 93.8199 70.1423 94.0925C70.3926 94.362 70.6555 94.5633 70.9312 94.6964C71.2084 94.8246 71.4887 94.8856 71.7723 94.8792C72.059 94.8712 72.3442 94.7943 72.6277 94.6486C72.9239 94.4964 73.1587 94.3061 73.332 94.0777C73.5053 93.8493 73.6156 93.5876 73.6629 93.2926C73.7118 92.9928 73.6962 92.6644 73.6161 92.3074C73.5343 91.9473 73.3874 91.5611 73.1751 91.1486Z" fill="#177338"/>
<path d="M82.822 77.9274L88.6988 82.9575L88.0419 83.7238L82.1651 78.6937L82.822 77.9274ZM84.44 76.0399L85.0777 76.5857L81.1882 81.1231L80.5505 80.5772L84.44 76.0399Z" fill="#177338"/>
<path d="M93.3525 67.6485L93.7936 67.8591C94.3179 68.1095 94.7565 68.3993 95.1094 68.7288C95.4624 69.0582 95.7255 69.4153 95.8988 69.8002C96.0721 70.1851 96.1529 70.5866 96.1414 71.0049C96.1314 71.42 96.0248 71.8399 95.8216 72.2648C95.6245 72.6769 95.3668 73.0187 95.0483 73.2905C94.7314 73.559 94.3672 73.75 93.9556 73.8634C93.5455 73.9736 93.0998 73.9982 92.6186 73.9371C92.1373 73.876 91.6345 73.7203 91.1102 73.47L90.6691 73.2593C90.1448 73.009 89.7086 72.7183 89.3603 72.3872C89.0104 72.0514 88.7496 71.6894 88.5779 71.3014C88.4029 70.9118 88.3205 70.5094 88.3305 70.0944C88.342 69.6761 88.4463 69.2609 88.6434 68.8489C88.8466 68.424 89.1066 68.0773 89.4235 67.8088C89.742 67.5371 90.1071 67.3485 90.5188 67.243C90.9289 67.1327 91.373 67.1113 91.8512 67.1788C92.3278 67.2416 92.8282 67.3981 93.3525 67.6485ZM93.3559 68.7743L92.9052 68.5591C92.4896 68.3606 92.1013 68.2282 91.7404 68.1618C91.381 68.0922 91.0537 68.0869 90.7584 68.146C90.4631 68.2051 90.203 68.3262 89.978 68.5091C89.7546 68.6889 89.5719 68.9273 89.4298 69.2244C89.2923 69.5119 89.2238 69.7989 89.2241 70.0855C89.226 70.369 89.2959 70.6456 89.4339 70.9155C89.5734 71.1823 89.7815 71.4367 90.0584 71.6787C90.3354 71.9208 90.6816 72.1411 91.0972 72.3396L91.5479 72.5548C91.9667 72.7548 92.3589 72.8871 92.7246 72.9519C93.087 73.0151 93.4183 73.0163 93.7183 72.9555C94.0166 72.89 94.2767 72.769 94.4986 72.5924C94.722 72.4127 94.9025 72.179 95.04 71.8915C95.1836 71.5913 95.2552 71.2978 95.2548 71.0112C95.2544 70.7246 95.1838 70.4495 95.0428 70.186C94.9001 69.9178 94.6888 69.6658 94.4088 69.4301C94.1257 69.1929 93.7747 68.9743 93.3559 68.7743Z" fill="#177338"/>
<path d="M97.0198 58.6143L96.643 60.6455L95.8226 60.4936L96.1994 58.4624C96.2724 58.069 96.2688 57.7389 96.1886 57.472C96.1084 57.2051 95.9671 56.9953 95.7648 56.8426C95.5632 56.6864 95.3195 56.5819 95.0339 56.5289C94.7726 56.4805 94.5163 56.4925 94.2651 56.5648C94.0145 56.6336 93.7969 56.7769 93.6124 56.9948C93.4243 57.212 93.2938 57.5173 93.2208 57.9106L92.8876 59.7068L99.6704 60.9633L99.4834 61.971L91.875 60.5617L92.3952 57.7577C92.5018 57.1833 92.6911 56.7161 92.9633 56.356C93.2355 55.996 93.5666 55.7459 93.9566 55.6057C94.343 55.4648 94.761 55.436 95.2104 55.5192C95.6981 55.6096 96.0953 55.7894 96.4021 56.0587C96.7089 56.3279 96.9161 56.6778 97.0236 57.1082C97.1276 57.5379 97.1264 58.04 97.0198 58.6143Z" fill="#177338"/>
<path d="M95.4895 38.0457L98.2633 37.4717C98.4214 37.5366 98.6085 37.6533 98.8243 37.822C99.0367 37.9913 99.2445 38.243 99.4476 38.577C99.6465 38.9082 99.8045 39.3564 99.9216 39.9215C100.017 40.3826 100.025 40.8237 99.9462 41.2451C99.8629 41.6636 99.6963 42.047 99.4465 42.3951C99.1924 42.7406 98.8595 43.0372 98.4478 43.2851C98.0318 43.5303 97.5411 43.7114 96.9756 43.8284L96.3875 43.9501C95.822 44.0671 95.3035 44.1057 94.8321 44.0659C94.36 44.0226 93.9426 43.9028 93.58 43.7067C93.2138 43.5113 92.9118 43.2412 92.6739 42.8964C92.4325 42.5522 92.2612 42.1357 92.1599 41.6469C92.0399 41.068 92.0403 40.5635 92.161 40.1336C92.2776 39.7009 92.4885 39.3391 92.7936 39.0482C93.098 38.7538 93.4676 38.5291 93.9022 38.3741L94.1102 39.3778C93.8454 39.4795 93.6143 39.6214 93.4168 39.8032C93.2186 39.9817 93.0774 40.2079 92.9931 40.4821C92.9053 40.7569 92.9017 41.0885 92.9821 41.4768C93.0547 41.8269 93.1817 42.117 93.3633 42.347C93.5448 42.5769 93.7725 42.7504 94.0464 42.8672C94.3203 42.9841 94.6358 43.049 94.9931 43.0618C95.3496 43.0712 95.7413 43.0317 96.168 42.9434L96.7665 42.8196C97.2036 42.7291 97.5835 42.5981 97.9062 42.4265C98.2281 42.2514 98.4907 42.0434 98.6941 41.8024C98.8939 41.5622 99.029 41.2975 99.0993 41.0081C99.1689 40.7154 99.1703 40.4078 99.1035 40.0853C99.0294 39.7283 98.94 39.4449 98.835 39.2352C98.7266 39.0263 98.6178 38.868 98.5087 38.7604C98.3961 38.6536 98.2948 38.5751 98.2048 38.525L96.5082 38.8761L96.8714 40.6286L96.0596 40.7966L95.4895 38.0457Z" fill="#177338"/>
<path d="M90.1814 26.0716L90.6153 25.8463C91.1309 25.5786 91.6265 25.4031 92.1022 25.3197C92.5779 25.2362 93.0217 25.2412 93.4336 25.3346C93.8455 25.4279 94.2151 25.6051 94.5424 25.866C94.8681 26.1238 95.1396 26.4616 95.3569 26.8795C95.5676 27.2847 95.6858 27.6962 95.7113 28.1138C95.7352 28.5283 95.6686 28.9339 95.5115 29.3307C95.3529 29.7243 95.1043 30.0947 94.7658 30.442C94.4273 30.7893 94.0003 31.0968 93.4847 31.3645L93.0508 31.5898C92.5352 31.8575 92.0403 32.0306 91.5661 32.1093C91.0872 32.1864 90.6409 32.1767 90.2274 32.0802C89.8107 31.9853 89.4395 31.809 89.1138 31.5512C88.7865 31.2903 88.5175 30.9572 88.3067 30.5519C88.0895 30.1341 87.9689 29.7179 87.945 29.3034C87.9195 28.8858 87.9884 28.4809 88.1519 28.0888C88.3106 27.6952 88.5608 27.3279 88.9025 26.9869C89.2395 26.6444 89.6658 26.3393 90.1814 26.0716ZM91.0833 26.7464L90.64 26.9765C90.2313 27.1887 89.8918 27.4189 89.6215 27.6669C89.3495 27.9119 89.1484 28.1699 89.0179 28.4411C88.8874 28.7124 88.8276 28.9928 88.8384 29.2824C88.8476 29.5689 88.9282 29.8582 89.0801 30.1503C89.2272 30.4331 89.4153 30.6606 89.6446 30.8328C89.8723 31.0018 90.1355 31.1125 90.4342 31.1649C90.7313 31.2141 91.0599 31.2011 91.4201 31.1258C91.7802 31.0505 92.1646 30.9068 92.5734 30.6946L93.0167 30.4644C93.4285 30.2506 93.7704 30.0173 94.0422 29.7644C94.3108 29.5132 94.5111 29.2496 94.6431 28.9736C94.7703 28.6961 94.8301 28.4157 94.8226 28.1324C94.8133 27.8459 94.7352 27.5613 94.5882 27.2786C94.4346 26.9833 94.2432 26.7495 94.0139 26.5773C93.7846 26.4051 93.5223 26.296 93.2268 26.2499C92.9265 26.2023 92.598 26.2193 92.2411 26.3008C91.8811 26.384 91.4951 26.5325 91.0833 26.7464Z" fill="#177338"/>
<path d="M77.8115 17.1625L82.8207 11.2691L83.5904 11.9223L78.5812 17.8157L77.8115 17.1625ZM75.9158 15.5537L76.4594 14.9141L81.0165 18.7816L80.4729 19.4211L75.9158 15.5537Z" fill="#177338"/>
<path d="M67.4805 6.68337L67.6895 6.24167C67.9378 5.71675 68.2261 5.27726 68.5543 4.9232C68.8825 4.56914 69.2388 4.30473 69.6232 4.12997C70.0076 3.95521 70.4092 3.87272 70.8278 3.8825C71.2432 3.89076 71.6639 3.99551 72.09 4.19675C72.5032 4.39194 72.8464 4.64806 73.1197 4.96511C73.3897 5.28064 73.5824 5.64381 73.6976 6.05461C73.8097 6.46389 73.8362 6.90911 73.7771 7.39027C73.7179 7.87143 73.5642 8.37447 73.3159 8.89939L73.1069 9.34109C72.8586 9.86601 72.5695 10.3031 72.2396 10.6525C71.905 11.0035 71.5439 11.2657 71.1563 11.4389C70.7671 11.6154 70.3648 11.6994 69.9494 11.6912C69.5308 11.6814 69.1149 11.5789 68.7016 11.3837C68.2756 11.1825 67.9276 10.9241 67.6575 10.6086C67.3843 10.2915 67.194 9.92752 67.0866 9.51655C66.9746 9.10726 66.9513 8.66355 67.0168 8.18542C67.0776 7.70898 67.2322 7.20829 67.4805 6.68337ZM68.6072 6.67517L68.3937 7.12647C68.1969 7.54257 68.066 7.93108 68.001 8.292C67.9329 8.65142 67.929 8.97853 67.9894 9.27335C68.0498 9.56817 68.172 9.82757 68.356 10.0516C68.5369 10.274 68.7763 10.4556 69.0742 10.5964C69.3624 10.7325 69.65 10.7998 69.9368 10.7983C70.2205 10.7952 70.497 10.7242 70.7666 10.5852C71.0329 10.4447 71.2866 10.2356 71.5277 9.9579C71.7688 9.68019 71.9878 9.33329 72.1847 8.9172L72.3982 8.46589C72.5965 8.0466 72.7273 7.65413 72.7906 7.28849C72.8523 6.92605 72.8521 6.59506 72.7901 6.29553C72.7233 5.99769 72.6011 5.73829 72.4234 5.51732C72.2426 5.29484 72.008 5.11551 71.7197 4.97933C71.4186 4.8371 71.1247 4.76678 70.8379 4.76835C70.551 4.76992 70.276 4.8417 70.0129 4.9837C69.7451 5.12738 69.4938 5.33959 69.2591 5.62032C69.0229 5.90426 68.8056 6.25587 68.6072 6.67517Z" fill="#177338"/>
<path d="M58.4242 3.05681L60.4585 3.42481L60.3098 4.24522L58.2755 3.87723C57.8816 3.80596 57.5512 3.81096 57.2844 3.89223C57.0177 3.9735 56.8083 4.11552 56.6564 4.3183C56.5009 4.52045 56.3973 4.76435 56.3456 5.05002C56.2982 5.3113 56.3112 5.56731 56.3846 5.81804C56.4546 6.06815 56.5989 6.28495 56.8177 6.46845C57.0359 6.65543 57.3419 6.78455 57.7359 6.85581L59.5349 7.18124L60.7637 0.398424L61.773 0.581002L60.3946 8.18946L57.5863 7.68146C57.0111 7.5774 56.5427 7.39013 56.1812 7.11967C55.8198 6.8492 55.568 6.51943 55.4261 6.13036C55.2835 5.74478 55.2529 5.32729 55.3344 4.87789C55.4227 4.39017 55.601 3.99247 55.8692 3.68479C56.1373 3.37711 56.4866 3.16864 56.9168 3.05938C57.3465 2.95361 57.8489 2.95275 58.4242 3.05681Z" fill="#177338"/>
</svg>
