<svg width="150" height="28" viewBox="0 0 150 28" fill="none" xmlns="http://www.w3.org/2000/svg">
<g clip-path="url(#clip0_596_93)">
<path d="M70.1201 4.87305H51.2238C50.5822 4.87305 50.0558 5.38491 50.0558 6.02087V22.7573C50.0558 23.3906 50.5743 23.9077 51.2133 23.9077H70.1122C70.7564 23.9077 71.2749 23.3958 71.2749 22.7624V6.02345C71.2749 5.39008 70.7591 4.87305 70.1175 4.87305H70.1201ZM63.8536 6.27421H65.4824C65.5662 6.70077 65.6841 7.35999 65.8071 8.17949H63.8903C63.8405 7.29794 63.8458 6.63355 63.8536 6.27421ZM52.7007 6.27421H61.7875C61.798 6.63355 61.8294 7.30053 61.9158 8.17949H52.7007V6.27421ZM68.6327 22.5091H52.6928L52.6981 9.5884H62.0782C62.3662 11.685 62.9371 14.4046 64.0579 16.9329C63.0916 18.3159 61.942 19.562 60.6065 20.4642C60.4886 20.5392 60.575 20.6607 60.575 20.6607L61.0019 21.4699C61.0019 21.4699 61.0674 21.6301 61.2009 21.5319C62.5993 20.7486 63.7934 19.6732 64.8199 18.4607C65.5086 19.6887 66.3571 20.8184 67.3967 21.7542C67.5014 21.8757 67.6088 21.7775 67.6088 21.7775L68.253 21.0252C68.253 21.0252 68.3394 20.958 68.2399 20.8701C67.2474 19.7119 66.4828 18.409 65.8857 17.0699C66.6163 16.0203 67.2448 14.9113 67.7842 13.8255C67.8785 13.6471 67.7162 13.5928 67.7162 13.5928L66.3571 13.0499C66.3571 13.0499 66.2052 12.9879 66.1476 13.1456C65.8595 13.8229 65.5296 14.5054 65.1577 15.1801C64.4952 13.174 64.1626 11.1964 63.9976 9.59099H67.4281C67.4281 9.59099 67.9178 9.59099 67.8942 8.9964C67.6978 7.93389 67.5014 6.87397 67.3888 6.2768H68.6353L68.6301 22.5117L68.6327 22.5091ZM61.3868 18.4995V17.5145C61.3868 17.3465 61.2297 17.3879 61.2297 17.3879C58.5613 18.1453 55.377 18.4064 53.9236 18.4426H53.9158C53.7927 18.4426 53.6932 18.5383 53.6932 18.6572V20.2341C53.6932 20.3505 53.7927 20.4487 53.9131 20.4487H53.9158H53.9289C53.9289 20.4487 53.9289 20.4487 53.9315 20.4487C55.5681 20.3815 59.0903 19.6473 61.2533 18.696C61.2533 18.696 61.3868 18.6443 61.3868 18.5021V18.4995ZM54.8533 16.3874H60.2268C60.8657 16.3874 61.3868 15.8755 61.3868 15.2422V11.9642C61.3868 11.3282 60.8683 10.8189 60.2268 10.8164H54.8559C54.2143 10.8164 53.6932 11.3282 53.6932 11.9616V15.2396C53.6932 15.8755 54.2117 16.3874 54.8533 16.3874ZM56.2621 12.0185H58.8232V15.1853H56.2595V12.0211L56.2621 12.0185Z" fill="#2C1710"/>
<path d="M148.811 9.76937H130.247C130.095 9.76937 129.972 9.8857 129.972 10.0279V10.8603C129.972 11.0077 130.095 11.1292 130.247 11.1292H148.01L147.549 12.9284C147.549 13.0784 147.667 13.1999 147.813 13.1999H149.086C149.277 13.1999 149.28 13.0861 149.343 12.9284C149.343 12.9284 149.827 11.4678 149.961 10.9585C150.081 10.4984 149.984 9.76678 148.811 9.76678V9.76937ZM137.119 18.1169H131.795C131.156 18.1169 130.635 18.6288 130.635 19.2621V21.7335C130.635 22.3695 131.153 22.8788 131.795 22.8788H137.116C137.755 22.8788 138.276 22.3695 138.276 21.7335V19.2595C138.276 18.6262 137.758 18.1143 137.116 18.1117L137.119 18.1169ZM135.713 21.6793H133.199V19.3216H135.713V21.6793ZM130.224 6.97997H137.967V7.69606H131.863C131.745 7.69606 131.648 7.79171 131.648 7.90804V8.84129C131.648 8.96021 131.745 9.05327 131.863 9.05327H146.816C146.936 9.05327 147.03 8.95762 147.03 8.84129V7.90804C147.03 7.78912 146.936 7.69606 146.816 7.69606H140.712V6.97997H148.455C148.573 6.97997 148.67 6.88431 148.67 6.76798V5.83473C148.67 5.7184 148.573 5.62016 148.455 5.62016H140.712V4.96095C140.712 4.81101 140.596 4.6895 140.447 4.6895H138.232C138.082 4.6895 137.965 4.81101 137.965 4.96095V5.62016H130.221C130.103 5.62016 130.006 5.7184 130.006 5.83473V6.76798C130.006 6.88431 130.103 6.97997 130.221 6.97997H130.224ZM130.852 13.9212C130.734 13.9212 130.638 14.0168 130.638 14.1357V15.0716C130.638 15.1879 130.734 15.2861 130.852 15.2861H147.829C147.947 15.2861 148.046 15.1905 148.046 15.0716V14.1357C148.046 14.0168 147.95 13.9212 147.829 13.9212H140.712V13.2076H146.816C146.936 13.2076 147.03 13.112 147.03 12.9957V12.0624C147.03 11.9435 146.936 11.8478 146.816 11.8478H131.863C131.745 11.8478 131.648 11.9435 131.648 12.0624V12.9957C131.648 13.112 131.745 13.2076 131.863 13.2076H137.965V13.9212H130.85H130.852ZM149.654 15.9996H129.014C128.896 15.9996 128.799 16.0953 128.799 16.2116V17.1423C128.799 17.2612 128.896 17.3568 129.014 17.3568H144.393V18.1169H139.258C139.138 18.1169 139.041 18.2151 139.041 18.3315V19.2647C139.041 19.381 139.138 19.4767 139.258 19.4767H140.793L141.094 21.4828C141.094 21.5914 141.193 21.6793 141.316 21.6793H142.903C142.977 21.6793 143.034 21.6301 143.034 21.5681L142.463 19.4767H144.393V21.6069C144.38 22.1834 144.281 22.4962 143.32 22.4962H142.775C142.707 22.4962 142.697 22.5401 142.694 22.5608V23.5768C142.694 23.7577 142.843 23.9025 143.026 23.9025H144.029C146.31 23.9025 147.033 23.5975 147.036 21.6405V19.4741H148.452C148.573 19.4741 148.67 19.3785 148.67 19.2621V18.3289C148.67 18.2125 148.573 18.1143 148.452 18.1143H147.036V17.3543H149.657C149.775 17.3543 149.872 17.2586 149.872 17.1397V16.209C149.872 16.0901 149.772 15.997 149.657 15.997L149.654 15.9996Z" fill="#2C1710"/>
<path d="M124.007 22.8684L123.297 23.7603C123.297 23.7603 123.148 23.9878 122.926 23.8792C122.923 23.8792 122.918 23.8766 122.912 23.8715C117.227 21.5862 114.577 16.7778 113.344 12.5769C112.116 16.7778 109.463 21.5836 103.78 23.8715C103.78 23.8715 103.77 23.8741 103.765 23.8767C103.542 23.9852 103.396 23.7577 103.396 23.7577L102.688 22.8658C102.688 22.8658 102.565 22.6849 102.733 22.5815C103.131 22.3798 103.636 22.1084 104.048 21.8602C111.657 17.0518 111.87 6.66199 111.859 5.16776C111.859 5.06694 111.94 4.9868 112.04 4.9868H114.653C114.753 4.9868 114.834 5.06694 114.834 5.16776C114.823 6.66199 115.038 17.0518 122.651 21.8602C123.057 22.1084 123.565 22.3824 123.963 22.5815C124.133 22.6849 124.007 22.8658 124.007 22.8658V22.8684Z" fill="#2C1710"/>
<path d="M87.2802 15.1284H86.0652C85.9185 15.1284 85.7981 15.2473 85.7981 15.3895V21.612C85.7824 22.1859 85.6855 22.5013 84.7297 22.5013H84.1797C84.0907 22.5013 84.0986 22.5789 84.0986 22.5789V23.5845C84.0986 23.7681 84.2478 23.9103 84.4285 23.9103H85.4315C87.7123 23.9128 88.4377 23.6052 88.4377 21.6508V16.2788C88.4377 15.648 87.9192 15.131 87.2776 15.131L87.2802 15.1284ZM97.5873 16.695C96.2675 16.0798 94.767 15.1491 93.6541 14.0685H97.59C97.7078 14.0685 97.8047 13.9729 97.8047 13.8539V12.7061C97.8047 12.5872 97.7078 12.4941 97.59 12.4941H84.1431C84.6197 11.8918 85.057 11.2791 85.4524 10.6793H95.0498C95.1677 10.6793 95.2672 10.5837 95.2672 10.4648V9.31954C95.2672 9.20063 95.1703 9.10498 95.0498 9.10498H86.4213C86.7958 8.4561 87.1153 7.84083 87.3824 7.29277H96.8201C96.9405 7.29277 97.0348 7.19712 97.0348 7.0782V5.93297C97.0348 5.81664 96.9405 5.72098 96.8201 5.72098H88.0868C88.1785 5.4909 88.2544 5.29443 88.3041 5.14966C88.3775 4.93509 88.367 4.77998 88.1261 4.72052C87.6128 4.61195 86.568 4.40255 86.2616 4.32241C85.8531 4.22158 85.7824 4.62746 85.7824 4.62746L85.6122 5.16776C85.5572 5.33579 85.4917 5.52193 85.4184 5.72098H77.6278C77.51 5.72098 77.4131 5.81664 77.4131 5.93297V7.0782C77.4131 7.19712 77.51 7.29277 77.6278 7.29277H84.7689C84.5123 7.86151 84.2112 8.47161 83.8707 9.10498H79.364C79.2462 9.10498 79.1493 9.20063 79.1493 9.31954V10.4648C79.1493 10.5837 79.2462 10.6793 79.364 10.6793H82.949C82.5614 11.2894 82.1398 11.9021 81.6789 12.4941H76.7872C76.6694 12.4941 76.5725 12.5872 76.5725 12.7061V13.8539C76.5725 13.9729 76.6694 14.0685 76.7872 14.0685H80.3172C79.2724 15.1439 78.0887 16.0746 76.7715 16.6899C76.4285 16.8036 76.5935 17.1035 76.5935 17.1035L76.8475 17.7162C76.8475 17.7162 76.9339 17.9669 77.2403 17.8558C78.0704 17.5585 78.8534 17.1681 79.5918 16.708C81.3097 17.1319 83.3653 18.0471 83.8786 18.2591C84.0383 18.3392 84.1064 18.2125 84.1064 18.2125L84.7297 16.9199C84.7297 16.9199 84.8344 16.7545 84.6616 16.6795C83.9441 16.3719 82.331 15.9169 81.0792 15.6429C81.6815 15.1543 82.2498 14.6243 82.7787 14.0685H91.2056C91.711 14.5907 92.2871 15.0871 92.9025 15.5524C91.8996 16.0177 90.276 16.3719 89.3752 16.4727C89.2573 16.4856 89.2102 16.5632 89.2442 16.695C89.4171 17.2095 89.4721 17.6128 89.6449 18.1221C89.7025 18.2927 89.7811 18.2901 89.8963 18.2617C90.4986 18.1738 93.0963 17.2147 94.2302 16.4598C95.1624 17.0311 96.1444 17.512 97.1212 17.8635C97.425 17.9773 97.514 17.7239 97.514 17.7239L97.768 17.1113C97.768 17.1113 97.933 16.8114 97.59 16.6976L97.5873 16.695ZM84.9575 20.2212C84.892 19.7636 84.8789 19.8205 84.7847 19.3578C84.7794 19.2854 84.6956 19.1975 84.5725 19.2466C82.4252 20.3453 80.2936 20.8934 77.9656 21.5293C77.8269 21.5784 77.785 21.6741 77.8426 21.7982C78.0337 22.1989 78.3532 22.8969 78.4894 23.1942C78.5391 23.295 78.6832 23.3751 78.8481 23.3157C80.744 22.6823 83.1244 21.4931 84.858 20.5056C84.9732 20.4229 84.9758 20.3479 84.9575 20.2212ZM96.079 21.6198C94.1438 20.7227 91.8865 19.942 89.8701 19.487C89.6789 19.425 89.6475 19.5672 89.6475 19.5672L89.2547 20.4073C89.2547 20.4073 89.1657 20.5831 89.3411 20.6478C91.2816 21.4802 92.9837 22.1549 94.8063 23.2278C94.9922 23.3079 95.2174 23.3002 95.3457 23.1295C95.6836 22.6409 95.8223 22.4134 96.1628 21.9197C96.2309 21.8137 96.1942 21.687 96.0816 21.6224L96.079 21.6198Z" fill="#2C1710"/>
<path d="M11.9071 8.58536C19.0875 5.4056 26.3752 4.48527 31.9713 5.62275C31.3455 5.34097 30.7144 4.85754 30.3294 4.17505C29.2977 2.33958 27.2761 1.24347 24.9611 1.49681C24.008 1.60281 23.0652 1.36497 22.4446 0.948758C21.5752 0.364509 20.5932 0 19.4043 0C18.2155 0 17.2335 0.364509 16.3641 0.948758C15.7434 1.36497 14.8007 1.60281 13.8501 1.49681C11.5352 1.24347 9.51362 2.337 8.48186 4.17505C8.0236 4.99455 7.21443 5.51934 6.47334 5.76752C4.63242 6.38538 3.11359 8.04506 2.90934 10.2063C2.81244 11.2248 2.20753 12.0288 1.75188 12.476C0.515872 13.6962 -0.00262451 15.1258 -0.00262451 16.5865V16.6589C3.02194 13.5515 7.09659 10.7155 11.9045 8.58794L11.9071 8.58536Z" fill="url(#paint0_linear_596_93)"/>
<path d="M18.2443 12.7527C24.3824 10.0356 30.5965 8.96796 35.7684 9.42554C35.3232 7.65469 33.9799 6.33367 32.3379 5.76752C32.2175 5.72616 32.0944 5.67962 31.9713 5.62533C26.3752 4.48786 19.0849 5.40818 11.9071 8.58794C7.09921 10.713 3.02456 13.5515 0 16.6563C0.0366614 19.5284 2.20754 21.8912 5.01999 22.2738C8.13097 18.6055 12.7005 15.206 18.2443 12.7527Z" fill="url(#paint1_linear_596_93)"/>
<path d="M37.0594 12.476C36.6064 12.0288 35.9989 11.2248 35.902 10.2063C35.8758 9.9374 35.8313 9.6763 35.7684 9.42812C30.5992 8.97055 24.3824 10.0382 18.2443 12.7552C12.6979 15.2086 8.12835 18.6107 5.01999 22.2764C5.27924 22.3126 5.54634 22.3307 5.81606 22.3307H14.167C14.9605 22.3307 15.6047 22.9822 15.6047 23.7629V24.0964C15.6047 25.4122 14.2848 25.5906 14.2848 25.5906L7.49463 26.7436C7.25371 26.7824 7.04684 26.9452 7.04684 27.1805V28.0052H31.7671V27.1805C31.7671 26.9452 31.5602 26.7824 31.3193 26.7436L24.5265 25.5906C24.5265 25.5906 23.2093 25.4148 23.2093 24.0964V23.7629C23.2093 22.9796 23.8508 22.3307 24.6443 22.3307H32.9979C36.211 22.3307 38.8139 19.7611 38.8139 16.589C38.8139 15.1284 38.298 13.6988 37.0594 12.4786V12.476Z" fill="#359339"/>
</g>
<defs>
<linearGradient id="paint0_linear_596_93" x1="24.3039" y1="-1.14006" x2="6.14659" y2="21.5718" gradientUnits="userSpaceOnUse">
<stop stop-color="#70B02F"/>
<stop offset="0.63" stop-color="#479C35"/>
<stop offset="1" stop-color="#359339"/>
</linearGradient>
<linearGradient id="paint1_linear_596_93" x1="30.0833" y1="-1.83289" x2="8.43275" y2="25.2506" gradientUnits="userSpaceOnUse">
<stop stop-color="#48A537"/>
<stop offset="0.53" stop-color="#3A9738"/>
<stop offset="1" stop-color="#359339"/>
</linearGradient>
<clipPath id="clip0_596_93">
<rect width="150" height="28" fill="white"/>
</clipPath>
</defs>
</svg>
